<svg width="22" height="23" viewBox="0 0 22 23" fill="none" xmlns="http://www.w3.org/2000/svg">
<path d="M10.7512 0.652166C10.7512 0.652166 12.1626 4.75139 14.7829 7.37165C17.4031 9.99191 21.5023 11.4033 21.5023 11.4033C21.5023 11.4033 16.914 13.3039 14.7829 15.435C12.6517 17.5662 10.7512 22.1545 10.7512 22.1545C10.7512 22.1545 8.85061 17.5662 6.71948 15.435C4.58835 13.3039 0 11.4033 0 11.4033C0 11.4033 5.0495 9.04163 6.71948 7.37165C8.38946 5.70167 10.7512 0.652166 10.7512 0.652166Z" fill="url(#paint0_linear_0_1)"/>
<path d="M19.1406 0C19.1406 0 19.4935 1.02481 20.1486 1.67987C20.8036 2.33493 21.8284 2.68779 21.8284 2.68779C21.8284 2.68779 20.6813 3.16293 20.1486 3.69571C19.6158 4.2285 19.1406 5.37558 19.1406 5.37558C19.1406 5.37558 18.6655 4.2285 18.1327 3.69571C17.5999 3.16293 16.4528 2.68779 16.4528 2.68779C16.4528 2.68779 17.7152 2.09737 18.1327 1.67987C18.5502 1.26238 19.1406 0 19.1406 0Z" fill="url(#paint1_linear_0_1)"/>
<path d="M11.4377 14.0728C10.8968 14.0728 10.4206 13.9645 10.0091 13.7479C9.60344 13.5313 9.28892 13.2365 9.06552 12.8634C8.84212 12.4844 8.73042 12.0542 8.73042 11.5728C8.73042 11.0855 8.83918 10.6553 9.0567 10.2822C9.2801 9.90315 9.58286 9.60833 9.96499 9.39774C10.3471 9.18113 10.7792 9.07283 11.2613 9.07283C11.7257 9.07283 12.1431 9.17511 12.5135 9.37969C12.8897 9.57824 13.1866 9.86705 13.4041 10.2461C13.6217 10.6192 13.7304 11.0674 13.7304 11.5909C13.7304 11.645 13.7275 11.7082 13.7216 11.7804C13.7157 11.8466 13.7098 11.9098 13.704 11.9699H9.85035V11.1486H12.9809L12.4518 11.3923C12.4518 11.1396 12.4018 10.92 12.3019 10.7335C12.2019 10.547 12.0638 10.4025 11.8874 10.3003C11.711 10.192 11.5053 10.1378 11.2701 10.1378C11.0349 10.1378 10.8262 10.192 10.644 10.3003C10.4676 10.4025 10.3295 10.55 10.2295 10.7425C10.1296 10.929 10.0796 11.1516 10.0796 11.4104V11.627C10.0796 11.8917 10.1355 12.1264 10.2472 12.3309C10.3648 12.5295 10.5264 12.6829 10.7322 12.7912C10.9438 12.8935 11.1907 12.9447 11.4729 12.9447C11.7257 12.9447 11.9462 12.9056 12.1343 12.8273C12.3283 12.7491 12.5047 12.6318 12.6634 12.4754L13.3953 13.2876C13.1778 13.5403 12.9044 13.7359 12.5752 13.8743C12.246 14.0066 11.8668 14.0728 11.4377 14.0728Z" fill="white"/>
<defs>
<linearGradient id="paint0_linear_0_1" x1="20.4845" y1="1.3439" x2="4.82843" y2="17.2488" gradientUnits="userSpaceOnUse">
<stop stop-color="#0088FF"/>
<stop offset="1" stop-color="#00C3D0"/>
</linearGradient>
<linearGradient id="paint1_linear_0_1" x1="20.4845" y1="1.3439" x2="4.82843" y2="17.2488" gradientUnits="userSpaceOnUse">
<stop stop-color="#0088FF"/>
<stop offset="1" stop-color="#00C3D0"/>
</linearGradient>
</defs>
</svg>
